<mxfile host="app.diagrams.net" agent="Mozilla/5.0 (Macintosh; Intel Mac OS X 10_15_7) AppleWebKit/537.36 (KHTML, like Gecko) Chrome/131.0.0.0 Safari/537.36" version="25.0.3">
  <diagram name="第 1 页" id="BKd82K3B1IVBK4QVJrPm">
    <mxGraphModel dx="760" dy="448" grid="1" gridSize="10" guides="1" tooltips="1" connect="1" arrows="1" fold="1" page="1" pageScale="1" pageWidth="1654" pageHeight="2336" math="0" shadow="0">
      <root>
        <mxCell id="0" />
        <mxCell id="1" parent="0" />
        <mxCell id="0k-it3TWebc9sIzKqzV3-97" style="edgeStyle=orthogonalEdgeStyle;rounded=0;orthogonalLoop=1;jettySize=auto;html=1;exitX=1;exitY=0.5;exitDx=0;exitDy=0;entryX=0;entryY=0.5;entryDx=0;entryDy=0;curved=1;" edge="1" parent="1" source="0k-it3TWebc9sIzKqzV3-2" target="0k-it3TWebc9sIzKqzV3-94">
          <mxGeometry relative="1" as="geometry" />
        </mxCell>
        <mxCell id="0k-it3TWebc9sIzKqzV3-2" value="txn1" style="ellipse;whiteSpace=wrap;html=1;aspect=fixed;" vertex="1" parent="1">
          <mxGeometry x="200" y="380" width="30" height="30" as="geometry" />
        </mxCell>
        <mxCell id="0k-it3TWebc9sIzKqzV3-52" value="Assets" style="childLayout=tableLayout;recursiveResize=0;strokeColor=#98bf21;fillColor=#A7C942;shadow=1;" vertex="1" parent="1">
          <mxGeometry x="150" y="180" width="280" height="160" as="geometry" />
        </mxCell>
        <mxCell id="0k-it3TWebc9sIzKqzV3-53" style="shape=tableRow;horizontal=0;startSize=0;swimlaneHead=0;swimlaneBody=0;top=0;left=0;bottom=0;right=0;dropTarget=0;collapsible=0;recursiveResize=0;expand=0;fontStyle=0;strokeColor=inherit;fillColor=#ffffff;" vertex="1" parent="0k-it3TWebc9sIzKqzV3-52">
          <mxGeometry width="280" height="33" as="geometry" />
        </mxCell>
        <mxCell id="0k-it3TWebc9sIzKqzV3-54" value="txn1" style="connectable=0;recursiveResize=0;strokeColor=inherit;fillColor=#A7C942;align=center;fontStyle=1;fontColor=#FFFFFF;html=1;" vertex="1" parent="0k-it3TWebc9sIzKqzV3-53">
          <mxGeometry width="93" height="33" as="geometry">
            <mxRectangle width="93" height="33" as="alternateBounds" />
          </mxGeometry>
        </mxCell>
        <mxCell id="0k-it3TWebc9sIzKqzV3-55" value="txn2" style="connectable=0;recursiveResize=0;strokeColor=inherit;fillColor=#A7C942;align=center;fontStyle=1;fontColor=#FFFFFF;html=1;" vertex="1" parent="0k-it3TWebc9sIzKqzV3-53">
          <mxGeometry x="93" width="94" height="33" as="geometry">
            <mxRectangle width="94" height="33" as="alternateBounds" />
          </mxGeometry>
        </mxCell>
        <mxCell id="0k-it3TWebc9sIzKqzV3-56" value="txn3" style="connectable=0;recursiveResize=0;strokeColor=inherit;fillColor=#A7C942;align=center;fontStyle=1;fontColor=#FFFFFF;html=1;" vertex="1" parent="0k-it3TWebc9sIzKqzV3-53">
          <mxGeometry x="187" width="93" height="33" as="geometry">
            <mxRectangle width="93" height="33" as="alternateBounds" />
          </mxGeometry>
        </mxCell>
        <mxCell id="0k-it3TWebc9sIzKqzV3-57" value="" style="shape=tableRow;horizontal=0;startSize=0;swimlaneHead=0;swimlaneBody=0;top=0;left=0;bottom=0;right=0;dropTarget=0;collapsible=0;recursiveResize=0;expand=0;fontStyle=0;strokeColor=inherit;fillColor=#ffffff;" vertex="1" parent="0k-it3TWebc9sIzKqzV3-52">
          <mxGeometry y="33" width="280" height="32" as="geometry" />
        </mxCell>
        <mxCell id="0k-it3TWebc9sIzKqzV3-58" value="lock row1" style="connectable=0;recursiveResize=0;strokeColor=inherit;fillColor=inherit;align=center;whiteSpace=wrap;html=1;" vertex="1" parent="0k-it3TWebc9sIzKqzV3-57">
          <mxGeometry width="93" height="32" as="geometry">
            <mxRectangle width="93" height="32" as="alternateBounds" />
          </mxGeometry>
        </mxCell>
        <mxCell id="0k-it3TWebc9sIzKqzV3-59" value="lock row2" style="connectable=0;recursiveResize=0;strokeColor=inherit;fillColor=inherit;align=center;whiteSpace=wrap;html=1;" vertex="1" parent="0k-it3TWebc9sIzKqzV3-57">
          <mxGeometry x="93" width="94" height="32" as="geometry">
            <mxRectangle width="94" height="32" as="alternateBounds" />
          </mxGeometry>
        </mxCell>
        <mxCell id="0k-it3TWebc9sIzKqzV3-60" value="lock row3" style="connectable=0;recursiveResize=0;strokeColor=inherit;fillColor=inherit;align=center;whiteSpace=wrap;html=1;" vertex="1" parent="0k-it3TWebc9sIzKqzV3-57">
          <mxGeometry x="187" width="93" height="32" as="geometry">
            <mxRectangle width="93" height="32" as="alternateBounds" />
          </mxGeometry>
        </mxCell>
        <mxCell id="0k-it3TWebc9sIzKqzV3-61" value="" style="shape=tableRow;horizontal=0;startSize=0;swimlaneHead=0;swimlaneBody=0;top=0;left=0;bottom=0;right=0;dropTarget=0;collapsible=0;recursiveResize=0;expand=0;fontStyle=1;strokeColor=inherit;fillColor=#EAF2D3;" vertex="1" parent="0k-it3TWebc9sIzKqzV3-52">
          <mxGeometry y="65" width="280" height="31" as="geometry" />
        </mxCell>
        <mxCell id="0k-it3TWebc9sIzKqzV3-62" value="lock row3" style="connectable=0;recursiveResize=0;strokeColor=inherit;fillColor=inherit;whiteSpace=wrap;html=1;" vertex="1" parent="0k-it3TWebc9sIzKqzV3-61">
          <mxGeometry width="93" height="31" as="geometry">
            <mxRectangle width="93" height="31" as="alternateBounds" />
          </mxGeometry>
        </mxCell>
        <mxCell id="0k-it3TWebc9sIzKqzV3-63" value="" style="connectable=0;recursiveResize=0;strokeColor=inherit;fillColor=inherit;whiteSpace=wrap;html=1;" vertex="1" parent="0k-it3TWebc9sIzKqzV3-61">
          <mxGeometry x="93" width="94" height="31" as="geometry">
            <mxRectangle width="94" height="31" as="alternateBounds" />
          </mxGeometry>
        </mxCell>
        <mxCell id="0k-it3TWebc9sIzKqzV3-64" value="" style="connectable=0;recursiveResize=0;strokeColor=inherit;fillColor=inherit;whiteSpace=wrap;html=1;" vertex="1" parent="0k-it3TWebc9sIzKqzV3-61">
          <mxGeometry x="187" width="93" height="31" as="geometry">
            <mxRectangle width="93" height="31" as="alternateBounds" />
          </mxGeometry>
        </mxCell>
        <mxCell id="0k-it3TWebc9sIzKqzV3-65" value="" style="shape=tableRow;horizontal=0;startSize=0;swimlaneHead=0;swimlaneBody=0;top=0;left=0;bottom=0;right=0;dropTarget=0;collapsible=0;recursiveResize=0;expand=0;fontStyle=0;strokeColor=inherit;fillColor=#ffffff;" vertex="1" parent="0k-it3TWebc9sIzKqzV3-52">
          <mxGeometry y="96" width="280" height="33" as="geometry" />
        </mxCell>
        <mxCell id="0k-it3TWebc9sIzKqzV3-66" value="" style="connectable=0;recursiveResize=0;strokeColor=inherit;fillColor=inherit;fontStyle=0;align=center;whiteSpace=wrap;html=1;" vertex="1" parent="0k-it3TWebc9sIzKqzV3-65">
          <mxGeometry width="93" height="33" as="geometry">
            <mxRectangle width="93" height="33" as="alternateBounds" />
          </mxGeometry>
        </mxCell>
        <mxCell id="0k-it3TWebc9sIzKqzV3-67" value="lock row1" style="connectable=0;recursiveResize=0;strokeColor=inherit;fillColor=inherit;fontStyle=0;align=center;whiteSpace=wrap;html=1;" vertex="1" parent="0k-it3TWebc9sIzKqzV3-65">
          <mxGeometry x="93" width="94" height="33" as="geometry">
            <mxRectangle width="94" height="33" as="alternateBounds" />
          </mxGeometry>
        </mxCell>
        <mxCell id="0k-it3TWebc9sIzKqzV3-68" value="" style="connectable=0;recursiveResize=0;strokeColor=inherit;fillColor=inherit;fontStyle=0;align=center;whiteSpace=wrap;html=1;" vertex="1" parent="0k-it3TWebc9sIzKqzV3-65">
          <mxGeometry x="187" width="93" height="33" as="geometry">
            <mxRectangle width="93" height="33" as="alternateBounds" />
          </mxGeometry>
        </mxCell>
        <mxCell id="0k-it3TWebc9sIzKqzV3-69" value="" style="shape=tableRow;horizontal=0;startSize=0;swimlaneHead=0;swimlaneBody=0;top=0;left=0;bottom=0;right=0;dropTarget=0;collapsible=0;recursiveResize=0;expand=0;fontStyle=1;strokeColor=inherit;fillColor=#EAF2D3;" vertex="1" parent="0k-it3TWebc9sIzKqzV3-52">
          <mxGeometry y="129" width="280" height="31" as="geometry" />
        </mxCell>
        <mxCell id="0k-it3TWebc9sIzKqzV3-70" value="" style="connectable=0;recursiveResize=0;strokeColor=inherit;fillColor=inherit;whiteSpace=wrap;html=1;" vertex="1" parent="0k-it3TWebc9sIzKqzV3-69">
          <mxGeometry width="93" height="31" as="geometry">
            <mxRectangle width="93" height="31" as="alternateBounds" />
          </mxGeometry>
        </mxCell>
        <mxCell id="0k-it3TWebc9sIzKqzV3-71" value="" style="connectable=0;recursiveResize=0;strokeColor=inherit;fillColor=inherit;whiteSpace=wrap;html=1;" vertex="1" parent="0k-it3TWebc9sIzKqzV3-69">
          <mxGeometry x="93" width="94" height="31" as="geometry">
            <mxRectangle width="94" height="31" as="alternateBounds" />
          </mxGeometry>
        </mxCell>
        <mxCell id="0k-it3TWebc9sIzKqzV3-72" value="" style="connectable=0;recursiveResize=0;strokeColor=inherit;fillColor=inherit;whiteSpace=wrap;html=1;" vertex="1" parent="0k-it3TWebc9sIzKqzV3-69">
          <mxGeometry x="187" width="93" height="31" as="geometry">
            <mxRectangle width="93" height="31" as="alternateBounds" />
          </mxGeometry>
        </mxCell>
        <mxCell id="0k-it3TWebc9sIzKqzV3-98" style="edgeStyle=orthogonalEdgeStyle;rounded=0;orthogonalLoop=1;jettySize=auto;html=1;exitX=0;exitY=0;exitDx=0;exitDy=0;entryX=1;entryY=1;entryDx=0;entryDy=0;curved=1;" edge="1" parent="1" source="0k-it3TWebc9sIzKqzV3-93" target="0k-it3TWebc9sIzKqzV3-2">
          <mxGeometry relative="1" as="geometry" />
        </mxCell>
        <mxCell id="0k-it3TWebc9sIzKqzV3-93" value="txn2" style="ellipse;whiteSpace=wrap;html=1;aspect=fixed;" vertex="1" parent="1">
          <mxGeometry x="270" y="450" width="30" height="30" as="geometry" />
        </mxCell>
        <mxCell id="0k-it3TWebc9sIzKqzV3-94" value="txn3" style="ellipse;whiteSpace=wrap;html=1;aspect=fixed;" vertex="1" parent="1">
          <mxGeometry x="330" y="380" width="30" height="30" as="geometry" />
        </mxCell>
        <mxCell id="0k-it3TWebc9sIzKqzV3-99" value="txn2" style="ellipse;whiteSpace=wrap;html=1;aspect=fixed;" vertex="1" parent="1">
          <mxGeometry x="330" y="380" width="30" height="30" as="geometry" />
        </mxCell>
        <mxCell id="0k-it3TWebc9sIzKqzV3-100" value="txn3" style="ellipse;whiteSpace=wrap;html=1;aspect=fixed;" vertex="1" parent="1">
          <mxGeometry x="330" y="380" width="30" height="30" as="geometry" />
        </mxCell>
        <mxCell id="0k-it3TWebc9sIzKqzV3-123" value="Assets" style="childLayout=tableLayout;recursiveResize=0;strokeColor=#98bf21;fillColor=#A7C942;shadow=1;" vertex="1" parent="1">
          <mxGeometry x="530" y="200" width="280" height="160" as="geometry" />
        </mxCell>
        <mxCell id="0k-it3TWebc9sIzKqzV3-124" style="shape=tableRow;horizontal=0;startSize=0;swimlaneHead=0;swimlaneBody=0;top=0;left=0;bottom=0;right=0;dropTarget=0;collapsible=0;recursiveResize=0;expand=0;fontStyle=0;strokeColor=inherit;fillColor=#ffffff;" vertex="1" parent="0k-it3TWebc9sIzKqzV3-123">
          <mxGeometry width="280" height="33" as="geometry" />
        </mxCell>
        <mxCell id="0k-it3TWebc9sIzKqzV3-125" value="txn1" style="connectable=0;recursiveResize=0;strokeColor=inherit;fillColor=#A7C942;align=center;fontStyle=1;fontColor=#FFFFFF;html=1;" vertex="1" parent="0k-it3TWebc9sIzKqzV3-124">
          <mxGeometry width="93" height="33" as="geometry">
            <mxRectangle width="93" height="33" as="alternateBounds" />
          </mxGeometry>
        </mxCell>
        <mxCell id="0k-it3TWebc9sIzKqzV3-126" value="txn2" style="connectable=0;recursiveResize=0;strokeColor=inherit;fillColor=#A7C942;align=center;fontStyle=1;fontColor=#FFFFFF;html=1;" vertex="1" parent="0k-it3TWebc9sIzKqzV3-124">
          <mxGeometry x="93" width="94" height="33" as="geometry">
            <mxRectangle width="94" height="33" as="alternateBounds" />
          </mxGeometry>
        </mxCell>
        <mxCell id="0k-it3TWebc9sIzKqzV3-127" value="txn3" style="connectable=0;recursiveResize=0;strokeColor=inherit;fillColor=#A7C942;align=center;fontStyle=1;fontColor=#FFFFFF;html=1;" vertex="1" parent="0k-it3TWebc9sIzKqzV3-124">
          <mxGeometry x="187" width="93" height="33" as="geometry">
            <mxRectangle width="93" height="33" as="alternateBounds" />
          </mxGeometry>
        </mxCell>
        <mxCell id="0k-it3TWebc9sIzKqzV3-128" value="" style="shape=tableRow;horizontal=0;startSize=0;swimlaneHead=0;swimlaneBody=0;top=0;left=0;bottom=0;right=0;dropTarget=0;collapsible=0;recursiveResize=0;expand=0;fontStyle=0;strokeColor=inherit;fillColor=#ffffff;" vertex="1" parent="0k-it3TWebc9sIzKqzV3-123">
          <mxGeometry y="33" width="280" height="32" as="geometry" />
        </mxCell>
        <mxCell id="0k-it3TWebc9sIzKqzV3-129" value="lock row1" style="connectable=0;recursiveResize=0;strokeColor=inherit;fillColor=inherit;align=center;whiteSpace=wrap;html=1;" vertex="1" parent="0k-it3TWebc9sIzKqzV3-128">
          <mxGeometry width="93" height="32" as="geometry">
            <mxRectangle width="93" height="32" as="alternateBounds" />
          </mxGeometry>
        </mxCell>
        <mxCell id="0k-it3TWebc9sIzKqzV3-130" value="lock row2" style="connectable=0;recursiveResize=0;strokeColor=inherit;fillColor=inherit;align=center;whiteSpace=wrap;html=1;" vertex="1" parent="0k-it3TWebc9sIzKqzV3-128">
          <mxGeometry x="93" width="94" height="32" as="geometry">
            <mxRectangle width="94" height="32" as="alternateBounds" />
          </mxGeometry>
        </mxCell>
        <mxCell id="0k-it3TWebc9sIzKqzV3-131" value="lock row3" style="connectable=0;recursiveResize=0;strokeColor=inherit;fillColor=inherit;align=center;whiteSpace=wrap;html=1;" vertex="1" parent="0k-it3TWebc9sIzKqzV3-128">
          <mxGeometry x="187" width="93" height="32" as="geometry">
            <mxRectangle width="93" height="32" as="alternateBounds" />
          </mxGeometry>
        </mxCell>
        <mxCell id="0k-it3TWebc9sIzKqzV3-132" value="" style="shape=tableRow;horizontal=0;startSize=0;swimlaneHead=0;swimlaneBody=0;top=0;left=0;bottom=0;right=0;dropTarget=0;collapsible=0;recursiveResize=0;expand=0;fontStyle=1;strokeColor=inherit;fillColor=#EAF2D3;" vertex="1" parent="0k-it3TWebc9sIzKqzV3-123">
          <mxGeometry y="65" width="280" height="31" as="geometry" />
        </mxCell>
        <mxCell id="0k-it3TWebc9sIzKqzV3-133" value="lock row3" style="connectable=0;recursiveResize=0;strokeColor=inherit;fillColor=inherit;whiteSpace=wrap;html=1;" vertex="1" parent="0k-it3TWebc9sIzKqzV3-132">
          <mxGeometry width="93" height="31" as="geometry">
            <mxRectangle width="93" height="31" as="alternateBounds" />
          </mxGeometry>
        </mxCell>
        <mxCell id="0k-it3TWebc9sIzKqzV3-134" value="" style="connectable=0;recursiveResize=0;strokeColor=inherit;fillColor=inherit;whiteSpace=wrap;html=1;" vertex="1" parent="0k-it3TWebc9sIzKqzV3-132">
          <mxGeometry x="93" width="94" height="31" as="geometry">
            <mxRectangle width="94" height="31" as="alternateBounds" />
          </mxGeometry>
        </mxCell>
        <mxCell id="0k-it3TWebc9sIzKqzV3-135" value="" style="connectable=0;recursiveResize=0;strokeColor=inherit;fillColor=inherit;whiteSpace=wrap;html=1;" vertex="1" parent="0k-it3TWebc9sIzKqzV3-132">
          <mxGeometry x="187" width="93" height="31" as="geometry">
            <mxRectangle width="93" height="31" as="alternateBounds" />
          </mxGeometry>
        </mxCell>
        <mxCell id="0k-it3TWebc9sIzKqzV3-136" value="" style="shape=tableRow;horizontal=0;startSize=0;swimlaneHead=0;swimlaneBody=0;top=0;left=0;bottom=0;right=0;dropTarget=0;collapsible=0;recursiveResize=0;expand=0;fontStyle=0;strokeColor=inherit;fillColor=#ffffff;" vertex="1" parent="0k-it3TWebc9sIzKqzV3-123">
          <mxGeometry y="96" width="280" height="33" as="geometry" />
        </mxCell>
        <mxCell id="0k-it3TWebc9sIzKqzV3-137" value="" style="connectable=0;recursiveResize=0;strokeColor=inherit;fillColor=inherit;fontStyle=0;align=center;whiteSpace=wrap;html=1;" vertex="1" parent="0k-it3TWebc9sIzKqzV3-136">
          <mxGeometry width="93" height="33" as="geometry">
            <mxRectangle width="93" height="33" as="alternateBounds" />
          </mxGeometry>
        </mxCell>
        <mxCell id="0k-it3TWebc9sIzKqzV3-138" value="lock row1" style="connectable=0;recursiveResize=0;strokeColor=inherit;fillColor=inherit;fontStyle=0;align=center;whiteSpace=wrap;html=1;" vertex="1" parent="0k-it3TWebc9sIzKqzV3-136">
          <mxGeometry x="93" width="94" height="33" as="geometry">
            <mxRectangle width="94" height="33" as="alternateBounds" />
          </mxGeometry>
        </mxCell>
        <mxCell id="0k-it3TWebc9sIzKqzV3-139" value="" style="connectable=0;recursiveResize=0;strokeColor=inherit;fillColor=inherit;fontStyle=0;align=center;whiteSpace=wrap;html=1;" vertex="1" parent="0k-it3TWebc9sIzKqzV3-136">
          <mxGeometry x="187" width="93" height="33" as="geometry">
            <mxRectangle width="93" height="33" as="alternateBounds" />
          </mxGeometry>
        </mxCell>
        <mxCell id="0k-it3TWebc9sIzKqzV3-140" value="" style="shape=tableRow;horizontal=0;startSize=0;swimlaneHead=0;swimlaneBody=0;top=0;left=0;bottom=0;right=0;dropTarget=0;collapsible=0;recursiveResize=0;expand=0;fontStyle=1;strokeColor=inherit;fillColor=#EAF2D3;" vertex="1" parent="0k-it3TWebc9sIzKqzV3-123">
          <mxGeometry y="129" width="280" height="31" as="geometry" />
        </mxCell>
        <mxCell id="0k-it3TWebc9sIzKqzV3-141" value="" style="connectable=0;recursiveResize=0;strokeColor=inherit;fillColor=inherit;whiteSpace=wrap;html=1;" vertex="1" parent="0k-it3TWebc9sIzKqzV3-140">
          <mxGeometry width="93" height="31" as="geometry">
            <mxRectangle width="93" height="31" as="alternateBounds" />
          </mxGeometry>
        </mxCell>
        <mxCell id="0k-it3TWebc9sIzKqzV3-142" value="" style="connectable=0;recursiveResize=0;strokeColor=inherit;fillColor=inherit;whiteSpace=wrap;html=1;" vertex="1" parent="0k-it3TWebc9sIzKqzV3-140">
          <mxGeometry x="93" width="94" height="31" as="geometry">
            <mxRectangle width="94" height="31" as="alternateBounds" />
          </mxGeometry>
        </mxCell>
        <mxCell id="0k-it3TWebc9sIzKqzV3-143" value="lock row2" style="connectable=0;recursiveResize=0;strokeColor=inherit;fillColor=inherit;whiteSpace=wrap;html=1;" vertex="1" parent="0k-it3TWebc9sIzKqzV3-140">
          <mxGeometry x="187" width="93" height="31" as="geometry">
            <mxRectangle width="93" height="31" as="alternateBounds" />
          </mxGeometry>
        </mxCell>
        <mxCell id="0k-it3TWebc9sIzKqzV3-144" value="Assets" style="childLayout=tableLayout;recursiveResize=0;strokeColor=#98bf21;fillColor=#A7C942;shadow=1;" vertex="1" parent="1">
          <mxGeometry x="150" y="180" width="280" height="160" as="geometry" />
        </mxCell>
        <mxCell id="0k-it3TWebc9sIzKqzV3-145" style="shape=tableRow;horizontal=0;startSize=0;swimlaneHead=0;swimlaneBody=0;top=0;left=0;bottom=0;right=0;dropTarget=0;collapsible=0;recursiveResize=0;expand=0;fontStyle=0;strokeColor=inherit;fillColor=#ffffff;" vertex="1" parent="0k-it3TWebc9sIzKqzV3-144">
          <mxGeometry width="280" height="33" as="geometry" />
        </mxCell>
        <mxCell id="0k-it3TWebc9sIzKqzV3-146" value="txn1" style="connectable=0;recursiveResize=0;strokeColor=inherit;fillColor=#A7C942;align=center;fontStyle=1;fontColor=#FFFFFF;html=1;" vertex="1" parent="0k-it3TWebc9sIzKqzV3-145">
          <mxGeometry width="93" height="33" as="geometry">
            <mxRectangle width="93" height="33" as="alternateBounds" />
          </mxGeometry>
        </mxCell>
        <mxCell id="0k-it3TWebc9sIzKqzV3-147" value="txn2" style="connectable=0;recursiveResize=0;strokeColor=inherit;fillColor=#A7C942;align=center;fontStyle=1;fontColor=#FFFFFF;html=1;" vertex="1" parent="0k-it3TWebc9sIzKqzV3-145">
          <mxGeometry x="93" width="94" height="33" as="geometry">
            <mxRectangle width="94" height="33" as="alternateBounds" />
          </mxGeometry>
        </mxCell>
        <mxCell id="0k-it3TWebc9sIzKqzV3-148" value="txn3" style="connectable=0;recursiveResize=0;strokeColor=inherit;fillColor=#A7C942;align=center;fontStyle=1;fontColor=#FFFFFF;html=1;" vertex="1" parent="0k-it3TWebc9sIzKqzV3-145">
          <mxGeometry x="187" width="93" height="33" as="geometry">
            <mxRectangle width="93" height="33" as="alternateBounds" />
          </mxGeometry>
        </mxCell>
        <mxCell id="0k-it3TWebc9sIzKqzV3-149" value="" style="shape=tableRow;horizontal=0;startSize=0;swimlaneHead=0;swimlaneBody=0;top=0;left=0;bottom=0;right=0;dropTarget=0;collapsible=0;recursiveResize=0;expand=0;fontStyle=0;strokeColor=inherit;fillColor=#ffffff;" vertex="1" parent="0k-it3TWebc9sIzKqzV3-144">
          <mxGeometry y="33" width="280" height="32" as="geometry" />
        </mxCell>
        <mxCell id="0k-it3TWebc9sIzKqzV3-150" value="lock row1" style="connectable=0;recursiveResize=0;strokeColor=inherit;fillColor=inherit;align=center;whiteSpace=wrap;html=1;" vertex="1" parent="0k-it3TWebc9sIzKqzV3-149">
          <mxGeometry width="93" height="32" as="geometry">
            <mxRectangle width="93" height="32" as="alternateBounds" />
          </mxGeometry>
        </mxCell>
        <mxCell id="0k-it3TWebc9sIzKqzV3-151" value="lock row2" style="connectable=0;recursiveResize=0;strokeColor=inherit;fillColor=inherit;align=center;whiteSpace=wrap;html=1;" vertex="1" parent="0k-it3TWebc9sIzKqzV3-149">
          <mxGeometry x="93" width="94" height="32" as="geometry">
            <mxRectangle width="94" height="32" as="alternateBounds" />
          </mxGeometry>
        </mxCell>
        <mxCell id="0k-it3TWebc9sIzKqzV3-152" value="lock row3" style="connectable=0;recursiveResize=0;strokeColor=inherit;fillColor=inherit;align=center;whiteSpace=wrap;html=1;" vertex="1" parent="0k-it3TWebc9sIzKqzV3-149">
          <mxGeometry x="187" width="93" height="32" as="geometry">
            <mxRectangle width="93" height="32" as="alternateBounds" />
          </mxGeometry>
        </mxCell>
        <mxCell id="0k-it3TWebc9sIzKqzV3-153" value="" style="shape=tableRow;horizontal=0;startSize=0;swimlaneHead=0;swimlaneBody=0;top=0;left=0;bottom=0;right=0;dropTarget=0;collapsible=0;recursiveResize=0;expand=0;fontStyle=1;strokeColor=inherit;fillColor=#EAF2D3;" vertex="1" parent="0k-it3TWebc9sIzKqzV3-144">
          <mxGeometry y="65" width="280" height="31" as="geometry" />
        </mxCell>
        <mxCell id="0k-it3TWebc9sIzKqzV3-154" value="lock row3" style="connectable=0;recursiveResize=0;strokeColor=inherit;fillColor=inherit;whiteSpace=wrap;html=1;" vertex="1" parent="0k-it3TWebc9sIzKqzV3-153">
          <mxGeometry width="93" height="31" as="geometry">
            <mxRectangle width="93" height="31" as="alternateBounds" />
          </mxGeometry>
        </mxCell>
        <mxCell id="0k-it3TWebc9sIzKqzV3-155" value="" style="connectable=0;recursiveResize=0;strokeColor=inherit;fillColor=inherit;whiteSpace=wrap;html=1;" vertex="1" parent="0k-it3TWebc9sIzKqzV3-153">
          <mxGeometry x="93" width="94" height="31" as="geometry">
            <mxRectangle width="94" height="31" as="alternateBounds" />
          </mxGeometry>
        </mxCell>
        <mxCell id="0k-it3TWebc9sIzKqzV3-156" value="" style="connectable=0;recursiveResize=0;strokeColor=inherit;fillColor=inherit;whiteSpace=wrap;html=1;" vertex="1" parent="0k-it3TWebc9sIzKqzV3-153">
          <mxGeometry x="187" width="93" height="31" as="geometry">
            <mxRectangle width="93" height="31" as="alternateBounds" />
          </mxGeometry>
        </mxCell>
        <mxCell id="0k-it3TWebc9sIzKqzV3-157" value="" style="shape=tableRow;horizontal=0;startSize=0;swimlaneHead=0;swimlaneBody=0;top=0;left=0;bottom=0;right=0;dropTarget=0;collapsible=0;recursiveResize=0;expand=0;fontStyle=0;strokeColor=inherit;fillColor=#ffffff;" vertex="1" parent="0k-it3TWebc9sIzKqzV3-144">
          <mxGeometry y="96" width="280" height="33" as="geometry" />
        </mxCell>
        <mxCell id="0k-it3TWebc9sIzKqzV3-158" value="" style="connectable=0;recursiveResize=0;strokeColor=inherit;fillColor=inherit;fontStyle=0;align=center;whiteSpace=wrap;html=1;" vertex="1" parent="0k-it3TWebc9sIzKqzV3-157">
          <mxGeometry width="93" height="33" as="geometry">
            <mxRectangle width="93" height="33" as="alternateBounds" />
          </mxGeometry>
        </mxCell>
        <mxCell id="0k-it3TWebc9sIzKqzV3-159" value="lock row1" style="connectable=0;recursiveResize=0;strokeColor=inherit;fillColor=inherit;fontStyle=0;align=center;whiteSpace=wrap;html=1;" vertex="1" parent="0k-it3TWebc9sIzKqzV3-157">
          <mxGeometry x="93" width="94" height="33" as="geometry">
            <mxRectangle width="94" height="33" as="alternateBounds" />
          </mxGeometry>
        </mxCell>
        <mxCell id="0k-it3TWebc9sIzKqzV3-160" value="" style="connectable=0;recursiveResize=0;strokeColor=inherit;fillColor=inherit;fontStyle=0;align=center;whiteSpace=wrap;html=1;" vertex="1" parent="0k-it3TWebc9sIzKqzV3-157">
          <mxGeometry x="187" width="93" height="33" as="geometry">
            <mxRectangle width="93" height="33" as="alternateBounds" />
          </mxGeometry>
        </mxCell>
        <mxCell id="0k-it3TWebc9sIzKqzV3-161" value="" style="shape=tableRow;horizontal=0;startSize=0;swimlaneHead=0;swimlaneBody=0;top=0;left=0;bottom=0;right=0;dropTarget=0;collapsible=0;recursiveResize=0;expand=0;fontStyle=1;strokeColor=inherit;fillColor=#EAF2D3;" vertex="1" parent="0k-it3TWebc9sIzKqzV3-144">
          <mxGeometry y="129" width="280" height="31" as="geometry" />
        </mxCell>
        <mxCell id="0k-it3TWebc9sIzKqzV3-162" value="" style="connectable=0;recursiveResize=0;strokeColor=inherit;fillColor=inherit;whiteSpace=wrap;html=1;" vertex="1" parent="0k-it3TWebc9sIzKqzV3-161">
          <mxGeometry width="93" height="31" as="geometry">
            <mxRectangle width="93" height="31" as="alternateBounds" />
          </mxGeometry>
        </mxCell>
        <mxCell id="0k-it3TWebc9sIzKqzV3-163" value="" style="connectable=0;recursiveResize=0;strokeColor=inherit;fillColor=inherit;whiteSpace=wrap;html=1;" vertex="1" parent="0k-it3TWebc9sIzKqzV3-161">
          <mxGeometry x="93" width="94" height="31" as="geometry">
            <mxRectangle width="94" height="31" as="alternateBounds" />
          </mxGeometry>
        </mxCell>
        <mxCell id="0k-it3TWebc9sIzKqzV3-164" value="" style="connectable=0;recursiveResize=0;strokeColor=inherit;fillColor=inherit;whiteSpace=wrap;html=1;" vertex="1" parent="0k-it3TWebc9sIzKqzV3-161">
          <mxGeometry x="187" width="93" height="31" as="geometry">
            <mxRectangle width="93" height="31" as="alternateBounds" />
          </mxGeometry>
        </mxCell>
        <mxCell id="0k-it3TWebc9sIzKqzV3-165" value="Assets" style="childLayout=tableLayout;recursiveResize=0;strokeColor=#98bf21;fillColor=#A7C942;shadow=1;" vertex="1" parent="1">
          <mxGeometry x="150" y="180" width="280" height="160" as="geometry" />
        </mxCell>
        <mxCell id="0k-it3TWebc9sIzKqzV3-166" style="shape=tableRow;horizontal=0;startSize=0;swimlaneHead=0;swimlaneBody=0;top=0;left=0;bottom=0;right=0;dropTarget=0;collapsible=0;recursiveResize=0;expand=0;fontStyle=0;strokeColor=inherit;fillColor=#ffffff;" vertex="1" parent="0k-it3TWebc9sIzKqzV3-165">
          <mxGeometry width="280" height="33" as="geometry" />
        </mxCell>
        <mxCell id="0k-it3TWebc9sIzKqzV3-167" value="txn1" style="connectable=0;recursiveResize=0;strokeColor=inherit;fillColor=#A7C942;align=center;fontStyle=1;fontColor=#FFFFFF;html=1;" vertex="1" parent="0k-it3TWebc9sIzKqzV3-166">
          <mxGeometry width="93" height="33" as="geometry">
            <mxRectangle width="93" height="33" as="alternateBounds" />
          </mxGeometry>
        </mxCell>
        <mxCell id="0k-it3TWebc9sIzKqzV3-168" value="txn2" style="connectable=0;recursiveResize=0;strokeColor=inherit;fillColor=#A7C942;align=center;fontStyle=1;fontColor=#FFFFFF;html=1;" vertex="1" parent="0k-it3TWebc9sIzKqzV3-166">
          <mxGeometry x="93" width="94" height="33" as="geometry">
            <mxRectangle width="94" height="33" as="alternateBounds" />
          </mxGeometry>
        </mxCell>
        <mxCell id="0k-it3TWebc9sIzKqzV3-169" value="txn3" style="connectable=0;recursiveResize=0;strokeColor=inherit;fillColor=#A7C942;align=center;fontStyle=1;fontColor=#FFFFFF;html=1;" vertex="1" parent="0k-it3TWebc9sIzKqzV3-166">
          <mxGeometry x="187" width="93" height="33" as="geometry">
            <mxRectangle width="93" height="33" as="alternateBounds" />
          </mxGeometry>
        </mxCell>
        <mxCell id="0k-it3TWebc9sIzKqzV3-170" value="" style="shape=tableRow;horizontal=0;startSize=0;swimlaneHead=0;swimlaneBody=0;top=0;left=0;bottom=0;right=0;dropTarget=0;collapsible=0;recursiveResize=0;expand=0;fontStyle=0;strokeColor=inherit;fillColor=#ffffff;" vertex="1" parent="0k-it3TWebc9sIzKqzV3-165">
          <mxGeometry y="33" width="280" height="32" as="geometry" />
        </mxCell>
        <mxCell id="0k-it3TWebc9sIzKqzV3-171" value="lock row1" style="connectable=0;recursiveResize=0;strokeColor=inherit;fillColor=inherit;align=center;whiteSpace=wrap;html=1;" vertex="1" parent="0k-it3TWebc9sIzKqzV3-170">
          <mxGeometry width="93" height="32" as="geometry">
            <mxRectangle width="93" height="32" as="alternateBounds" />
          </mxGeometry>
        </mxCell>
        <mxCell id="0k-it3TWebc9sIzKqzV3-172" value="lock row2" style="connectable=0;recursiveResize=0;strokeColor=inherit;fillColor=inherit;align=center;whiteSpace=wrap;html=1;" vertex="1" parent="0k-it3TWebc9sIzKqzV3-170">
          <mxGeometry x="93" width="94" height="32" as="geometry">
            <mxRectangle width="94" height="32" as="alternateBounds" />
          </mxGeometry>
        </mxCell>
        <mxCell id="0k-it3TWebc9sIzKqzV3-173" value="lock row3" style="connectable=0;recursiveResize=0;strokeColor=inherit;fillColor=inherit;align=center;whiteSpace=wrap;html=1;" vertex="1" parent="0k-it3TWebc9sIzKqzV3-170">
          <mxGeometry x="187" width="93" height="32" as="geometry">
            <mxRectangle width="93" height="32" as="alternateBounds" />
          </mxGeometry>
        </mxCell>
        <mxCell id="0k-it3TWebc9sIzKqzV3-174" value="" style="shape=tableRow;horizontal=0;startSize=0;swimlaneHead=0;swimlaneBody=0;top=0;left=0;bottom=0;right=0;dropTarget=0;collapsible=0;recursiveResize=0;expand=0;fontStyle=1;strokeColor=inherit;fillColor=#EAF2D3;" vertex="1" parent="0k-it3TWebc9sIzKqzV3-165">
          <mxGeometry y="65" width="280" height="31" as="geometry" />
        </mxCell>
        <mxCell id="0k-it3TWebc9sIzKqzV3-175" value="lock row3" style="connectable=0;recursiveResize=0;strokeColor=inherit;fillColor=inherit;whiteSpace=wrap;html=1;" vertex="1" parent="0k-it3TWebc9sIzKqzV3-174">
          <mxGeometry width="93" height="31" as="geometry">
            <mxRectangle width="93" height="31" as="alternateBounds" />
          </mxGeometry>
        </mxCell>
        <mxCell id="0k-it3TWebc9sIzKqzV3-176" value="" style="connectable=0;recursiveResize=0;strokeColor=inherit;fillColor=inherit;whiteSpace=wrap;html=1;" vertex="1" parent="0k-it3TWebc9sIzKqzV3-174">
          <mxGeometry x="93" width="94" height="31" as="geometry">
            <mxRectangle width="94" height="31" as="alternateBounds" />
          </mxGeometry>
        </mxCell>
        <mxCell id="0k-it3TWebc9sIzKqzV3-177" value="" style="connectable=0;recursiveResize=0;strokeColor=inherit;fillColor=inherit;whiteSpace=wrap;html=1;" vertex="1" parent="0k-it3TWebc9sIzKqzV3-174">
          <mxGeometry x="187" width="93" height="31" as="geometry">
            <mxRectangle width="93" height="31" as="alternateBounds" />
          </mxGeometry>
        </mxCell>
        <mxCell id="0k-it3TWebc9sIzKqzV3-178" value="" style="shape=tableRow;horizontal=0;startSize=0;swimlaneHead=0;swimlaneBody=0;top=0;left=0;bottom=0;right=0;dropTarget=0;collapsible=0;recursiveResize=0;expand=0;fontStyle=0;strokeColor=inherit;fillColor=#ffffff;" vertex="1" parent="0k-it3TWebc9sIzKqzV3-165">
          <mxGeometry y="96" width="280" height="33" as="geometry" />
        </mxCell>
        <mxCell id="0k-it3TWebc9sIzKqzV3-179" value="" style="connectable=0;recursiveResize=0;strokeColor=inherit;fillColor=inherit;fontStyle=0;align=center;whiteSpace=wrap;html=1;" vertex="1" parent="0k-it3TWebc9sIzKqzV3-178">
          <mxGeometry width="93" height="33" as="geometry">
            <mxRectangle width="93" height="33" as="alternateBounds" />
          </mxGeometry>
        </mxCell>
        <mxCell id="0k-it3TWebc9sIzKqzV3-180" value="lock row1" style="connectable=0;recursiveResize=0;strokeColor=inherit;fillColor=inherit;fontStyle=0;align=center;whiteSpace=wrap;html=1;" vertex="1" parent="0k-it3TWebc9sIzKqzV3-178">
          <mxGeometry x="93" width="94" height="33" as="geometry">
            <mxRectangle width="94" height="33" as="alternateBounds" />
          </mxGeometry>
        </mxCell>
        <mxCell id="0k-it3TWebc9sIzKqzV3-181" value="" style="connectable=0;recursiveResize=0;strokeColor=inherit;fillColor=inherit;fontStyle=0;align=center;whiteSpace=wrap;html=1;" vertex="1" parent="0k-it3TWebc9sIzKqzV3-178">
          <mxGeometry x="187" width="93" height="33" as="geometry">
            <mxRectangle width="93" height="33" as="alternateBounds" />
          </mxGeometry>
        </mxCell>
        <mxCell id="0k-it3TWebc9sIzKqzV3-182" value="" style="shape=tableRow;horizontal=0;startSize=0;swimlaneHead=0;swimlaneBody=0;top=0;left=0;bottom=0;right=0;dropTarget=0;collapsible=0;recursiveResize=0;expand=0;fontStyle=1;strokeColor=inherit;fillColor=#EAF2D3;" vertex="1" parent="0k-it3TWebc9sIzKqzV3-165">
          <mxGeometry y="129" width="280" height="31" as="geometry" />
        </mxCell>
        <mxCell id="0k-it3TWebc9sIzKqzV3-183" value="" style="connectable=0;recursiveResize=0;strokeColor=inherit;fillColor=inherit;whiteSpace=wrap;html=1;" vertex="1" parent="0k-it3TWebc9sIzKqzV3-182">
          <mxGeometry width="93" height="31" as="geometry">
            <mxRectangle width="93" height="31" as="alternateBounds" />
          </mxGeometry>
        </mxCell>
        <mxCell id="0k-it3TWebc9sIzKqzV3-184" value="" style="connectable=0;recursiveResize=0;strokeColor=inherit;fillColor=inherit;whiteSpace=wrap;html=1;" vertex="1" parent="0k-it3TWebc9sIzKqzV3-182">
          <mxGeometry x="93" width="94" height="31" as="geometry">
            <mxRectangle width="94" height="31" as="alternateBounds" />
          </mxGeometry>
        </mxCell>
        <mxCell id="0k-it3TWebc9sIzKqzV3-185" value="" style="connectable=0;recursiveResize=0;strokeColor=inherit;fillColor=inherit;whiteSpace=wrap;html=1;" vertex="1" parent="0k-it3TWebc9sIzKqzV3-182">
          <mxGeometry x="187" width="93" height="31" as="geometry">
            <mxRectangle width="93" height="31" as="alternateBounds" />
          </mxGeometry>
        </mxCell>
        <mxCell id="0k-it3TWebc9sIzKqzV3-186" style="edgeStyle=orthogonalEdgeStyle;rounded=0;orthogonalLoop=1;jettySize=auto;html=1;exitX=1;exitY=0.5;exitDx=0;exitDy=0;entryX=0;entryY=0.5;entryDx=0;entryDy=0;curved=1;" edge="1" parent="1" source="0k-it3TWebc9sIzKqzV3-187" target="0k-it3TWebc9sIzKqzV3-190">
          <mxGeometry relative="1" as="geometry" />
        </mxCell>
        <mxCell id="0k-it3TWebc9sIzKqzV3-187" value="txn1" style="ellipse;whiteSpace=wrap;html=1;aspect=fixed;" vertex="1" parent="1">
          <mxGeometry x="580" y="410" width="30" height="30" as="geometry" />
        </mxCell>
        <mxCell id="0k-it3TWebc9sIzKqzV3-188" style="edgeStyle=orthogonalEdgeStyle;rounded=0;orthogonalLoop=1;jettySize=auto;html=1;exitX=0;exitY=0;exitDx=0;exitDy=0;entryX=1;entryY=1;entryDx=0;entryDy=0;curved=1;" edge="1" parent="1" source="0k-it3TWebc9sIzKqzV3-189" target="0k-it3TWebc9sIzKqzV3-187">
          <mxGeometry relative="1" as="geometry" />
        </mxCell>
        <mxCell id="0k-it3TWebc9sIzKqzV3-189" value="txn2" style="ellipse;whiteSpace=wrap;html=1;aspect=fixed;" vertex="1" parent="1">
          <mxGeometry x="650" y="480" width="30" height="30" as="geometry" />
        </mxCell>
        <mxCell id="0k-it3TWebc9sIzKqzV3-190" value="txn3" style="ellipse;whiteSpace=wrap;html=1;aspect=fixed;" vertex="1" parent="1">
          <mxGeometry x="710" y="410" width="30" height="30" as="geometry" />
        </mxCell>
        <mxCell id="0k-it3TWebc9sIzKqzV3-191" value="txn2" style="ellipse;whiteSpace=wrap;html=1;aspect=fixed;" vertex="1" parent="1">
          <mxGeometry x="710" y="410" width="30" height="30" as="geometry" />
        </mxCell>
        <mxCell id="0k-it3TWebc9sIzKqzV3-194" style="edgeStyle=orthogonalEdgeStyle;rounded=0;orthogonalLoop=1;jettySize=auto;html=1;exitX=0.5;exitY=1;exitDx=0;exitDy=0;entryX=1;entryY=0.5;entryDx=0;entryDy=0;curved=1;" edge="1" parent="1" source="0k-it3TWebc9sIzKqzV3-192" target="0k-it3TWebc9sIzKqzV3-189">
          <mxGeometry relative="1" as="geometry" />
        </mxCell>
        <mxCell id="0k-it3TWebc9sIzKqzV3-192" value="txn3" style="ellipse;whiteSpace=wrap;html=1;aspect=fixed;" vertex="1" parent="1">
          <mxGeometry x="710" y="410" width="30" height="30" as="geometry" />
        </mxCell>
        <mxCell id="0k-it3TWebc9sIzKqzV3-195" value="" style="sketch=0;pointerEvents=1;shadow=0;dashed=0;html=1;strokeColor=none;labelPosition=center;verticalLabelPosition=bottom;verticalAlign=top;outlineConnect=0;align=center;shape=mxgraph.office.security.lock_protected;fillColor=#DA4026;" vertex="1" parent="1">
          <mxGeometry x="730" y="458" width="28" height="32" as="geometry" />
        </mxCell>
        <mxCell id="0k-it3TWebc9sIzKqzV3-197" value="dead lock" style="text;html=1;align=center;verticalAlign=middle;resizable=0;points=[];autosize=1;strokeColor=none;fillColor=none;" vertex="1" parent="1">
          <mxGeometry x="735" y="418" width="70" height="30" as="geometry" />
        </mxCell>
      </root>
    </mxGraphModel>
  </diagram>
</mxfile>
